<mxfile modified="2023-03-15T22:01:38.214Z" host="Electron" agent="5.0 (Windows NT 10.0; Win64; x64) AppleWebKit/537.36 (KHTML, like Gecko) draw.io/20.3.0 Chrome/104.0.5112.114 Electron/20.1.3 Safari/537.36" etag="TvCV8nRhdYoNFSdZgwax" compressed="false" version="20.3.0" type="device">
  <diagram id="UE3BA3982Y95Slf7a0hU" name="Functionality - HL">
    <mxGraphModel dx="782" dy="517" grid="1" gridSize="10" guides="1" tooltips="1" connect="1" arrows="1" fold="1" page="1" pageScale="1" pageWidth="827" pageHeight="1169" math="0" shadow="0">
      <root>
        <mxCell id="oRMohzblakoOvz46gedz-0" />
        <mxCell id="oRMohzblakoOvz46gedz-1" parent="oRMohzblakoOvz46gedz-0" />
        <mxCell id="oRMohzblakoOvz46gedz-2" value="Common Human Interface&amp;nbsp; Functionality" style="rounded=0;whiteSpace=wrap;html=1;strokeColor=#000000;strokeWidth=1;fillColor=none;fontSize=12;fontColor=#000000;align=center;fontFamily=Helvetica;recursiveResize=0;container=1;collapsible=0;absoluteArcSize=1;arcSize=12;verticalAlign=top;" parent="oRMohzblakoOvz46gedz-1" vertex="1">
          <mxGeometry x="119.00000000000006" y="200" width="561" height="130" as="geometry" />
        </mxCell>
        <mxCell id="oRMohzblakoOvz46gedz-3" value="&lt;font style=&quot;font-size: 12px ; line-height: 90%&quot;&gt;Context View&lt;br&gt;&lt;font style=&quot;font-size: 12px&quot;&gt;(Sys,Session,&amp;nbsp; Org,User,&lt;br&gt;resource)&lt;/font&gt;&lt;/font&gt;" style="rounded=0;whiteSpace=wrap;html=1;strokeColor=#82b366;strokeWidth=3;fillColor=none;fontSize=10;align=center;fontFamily=Helvetica;verticalAlign=middle;" parent="oRMohzblakoOvz46gedz-2" vertex="1">
          <mxGeometry x="10" y="30" width="80" height="40" as="geometry" />
        </mxCell>
        <mxCell id="oRMohzblakoOvz46gedz-4" value="&lt;font style=&quot;font-size: 12px ; line-height: 90%&quot;&gt;Status Mgmt&lt;br&gt;&lt;font style=&quot;font-size: 12px&quot;&gt;(System, Queue Operation)&lt;/font&gt;&lt;/font&gt;" style="rounded=0;whiteSpace=wrap;html=1;strokeColor=#82b366;strokeWidth=3;fillColor=none;fontSize=10;align=center;fontFamily=Helvetica;verticalAlign=middle;" parent="oRMohzblakoOvz46gedz-2" vertex="1">
          <mxGeometry x="101" y="30" width="80" height="40" as="geometry" />
        </mxCell>
        <mxCell id="oRMohzblakoOvz46gedz-5" value="&lt;p style=&quot;line-height: 90% ; font-size: 12px&quot;&gt;BREAD Interfaces&lt;br&gt;&amp;amp; Validation&amp;nbsp;&lt;/p&gt;" style="rounded=0;whiteSpace=wrap;html=1;strokeColor=#82b366;strokeWidth=3;fillColor=none;fontSize=10;align=center;fontFamily=Helvetica;verticalAlign=middle;" parent="oRMohzblakoOvz46gedz-2" vertex="1">
          <mxGeometry x="191" y="30" width="80" height="40" as="geometry" />
        </mxCell>
        <mxCell id="oRMohzblakoOvz46gedz-6" value="Localisation, Globalisation" style="rounded=0;whiteSpace=wrap;html=1;strokeColor=#82b366;strokeWidth=3;fillColor=none;fontSize=12;align=center;fontFamily=Helvetica;verticalAlign=middle;" parent="oRMohzblakoOvz46gedz-2" vertex="1">
          <mxGeometry x="280" y="80" width="80" height="40" as="geometry" />
        </mxCell>
        <mxCell id="oRMohzblakoOvz46gedz-7" value="OIDC &lt;br style=&quot;font-size: 12px;&quot;&gt;Identity&lt;br style=&quot;font-size: 12px;&quot;&gt;Integration" style="rounded=0;whiteSpace=wrap;html=1;strokeColor=#82b366;strokeWidth=3;fillColor=none;fontSize=12;align=center;fontFamily=Helvetica;verticalAlign=middle;" parent="oRMohzblakoOvz46gedz-2" vertex="1">
          <mxGeometry x="11" y="80" width="79" height="40" as="geometry" />
        </mxCell>
        <mxCell id="oRMohzblakoOvz46gedz-8" value="&lt;p style=&quot;line-height: 90% ; font-size: 12px&quot;&gt;Single-Session&lt;br&gt;Multi-Organisation&lt;/p&gt;" style="rounded=0;whiteSpace=wrap;html=1;strokeColor=#82b366;strokeWidth=3;fillColor=none;fontSize=10;align=center;fontFamily=Helvetica;verticalAlign=middle;dashed=1;" parent="oRMohzblakoOvz46gedz-2" vertex="1">
          <mxGeometry x="460" y="80" width="80" height="40" as="geometry" />
        </mxCell>
        <mxCell id="oRMohzblakoOvz46gedz-9" value="&lt;p style=&quot;line-height: 80%&quot;&gt;Mobile&lt;br&gt;Optimized&lt;br style=&quot;font-size: 12px&quot;&gt;&lt;font style=&quot;font-size: 12px&quot;&gt;(Progressive Display)&lt;/font&gt;&lt;/p&gt;" style="rounded=0;whiteSpace=wrap;html=1;strokeColor=#82b366;strokeWidth=3;fillColor=none;fontSize=12;align=center;fontFamily=Helvetica;verticalAlign=middle;" parent="oRMohzblakoOvz46gedz-2" vertex="1">
          <mxGeometry x="100" y="80" width="79" height="40" as="geometry" />
        </mxCell>
        <mxCell id="oRMohzblakoOvz46gedz-10" value="Accessible" style="rounded=0;whiteSpace=wrap;html=1;strokeColor=#82b366;strokeWidth=3;fillColor=none;fontSize=12;align=center;fontFamily=Helvetica;verticalAlign=middle;" parent="oRMohzblakoOvz46gedz-2" vertex="1">
          <mxGeometry x="190" y="80" width="80" height="40" as="geometry" />
        </mxCell>
        <mxCell id="oRMohzblakoOvz46gedz-11" value="&lt;p style=&quot;line-height: 90% ; font-size: 12px&quot;&gt;System/&lt;br&gt;Organisation Agreements&lt;/p&gt;" style="rounded=0;whiteSpace=wrap;html=1;strokeColor=#82b366;strokeWidth=3;fillColor=none;fontSize=10;align=center;fontFamily=Helvetica;verticalAlign=middle;" parent="oRMohzblakoOvz46gedz-2" vertex="1">
          <mxGeometry x="280" y="30" width="80" height="40" as="geometry" />
        </mxCell>
        <mxCell id="oRMohzblakoOvz46gedz-12" value="Notification Management" style="rounded=0;whiteSpace=wrap;html=1;strokeColor=#82b366;strokeWidth=3;fillColor=none;fontSize=12;align=center;fontFamily=Helvetica;verticalAlign=middle;" parent="oRMohzblakoOvz46gedz-2" vertex="1">
          <mxGeometry x="370" y="80" width="80" height="40" as="geometry" />
        </mxCell>
        <mxCell id="oRMohzblakoOvz46gedz-13" value="&lt;font style=&quot;font-size: 12px ; line-height: 90%&quot;&gt;Common&lt;br&gt;Search&lt;/font&gt;" style="rounded=0;whiteSpace=wrap;html=1;strokeColor=#82b366;strokeWidth=3;fillColor=none;fontSize=10;align=center;fontFamily=Helvetica;verticalAlign=middle;" parent="oRMohzblakoOvz46gedz-2" vertex="1">
          <mxGeometry x="370" y="30" width="80" height="40" as="geometry" />
        </mxCell>
        <mxCell id="oRMohzblakoOvz46gedz-14" value="&lt;p style=&quot;line-height: 90%&quot;&gt;&lt;font style=&quot;font-size: 12px&quot;&gt;Organisation/ User Management&lt;/font&gt;&lt;/p&gt;" style="rounded=0;whiteSpace=wrap;html=1;strokeColor=#82b366;strokeWidth=3;fillColor=none;fontSize=10;align=center;fontFamily=Helvetica;verticalAlign=middle;" parent="oRMohzblakoOvz46gedz-2" vertex="1">
          <mxGeometry x="460" y="30" width="80" height="40" as="geometry" />
        </mxCell>
        <mxCell id="kiuggerRwx_hLH7nLOOs-0" value="Title" parent="oRMohzblakoOvz46gedz-0" visible="0" />
        <mxCell id="oRMohzblakoOvz46gedz-15" value="&lt;font style=&quot;font-size: 12px&quot;&gt;Diagram: Base System Logical Module -&amp;nbsp;Functionality Groups - High Level&lt;/font&gt;" style="text;strokeColor=none;fillColor=none;html=1;fontSize=24;fontStyle=2;verticalAlign=middle;align=left;shadow=0;glass=0;comic=0;opacity=30;fontColor=#808080;" parent="kiuggerRwx_hLH7nLOOs-0" vertex="1">
          <mxGeometry x="120" y="360" width="520" height="20" as="geometry" />
        </mxCell>
      </root>
    </mxGraphModel>
  </diagram>
</mxfile>
